<svg width="920" height="24" viewBox="0 0 920 24" fill="none" xmlns="http://www.w3.org/2000/svg">
<g clip-path="url(#clip0_11_402)">
<path fill-rule="evenodd" clip-rule="evenodd" d="M431.193 6.46313C431.077 6.18285 430.803 6.00006 430.5 6H427.647C426.836 4.61972 425.36 3.76579 423.759 3.75C422.575 3.73446 421.434 4.19754 420.595 5.03438C419.732 5.88138 419.247 7.04071 419.25 8.25V8.82094C415.476 7.82531 412.388 4.755 412.356 4.72219C412.15 4.51493 411.843 4.44566 411.569 4.54461C411.294 4.64356 411.102 4.89277 411.076 5.18344C410.672 9.66375 411.973 12.6619 413.138 14.3878C413.707 15.241 414.398 16.0055 415.19 16.6566C413.762 18.3 411.514 19.1634 411.489 19.1728C411.275 19.2531 411.109 19.4269 411.039 19.6448C410.968 19.8627 411.001 20.1008 411.128 20.2913C411.199 20.3962 411.48 20.7647 412.167 21.1087C413.017 21.5344 414.139 21.75 415.5 21.75C422.125 21.75 427.661 16.6481 428.227 10.0837L431.031 7.28062C431.245 7.06601 431.309 6.74335 431.193 6.46313ZM426.974 9.22031C426.845 9.34921 426.768 9.52049 426.757 9.70219C426.375 15.6169 421.432 20.25 415.5 20.25C414.51 20.25 413.812 20.1187 413.323 19.9613C414.402 19.3753 415.907 18.3675 416.874 16.9163C416.989 16.7438 417.027 16.5315 416.98 16.3298C416.933 16.128 416.804 15.9548 416.625 15.8512C416.581 15.8259 412.508 13.3819 412.5 6.85125C414 8.07 416.742 9.96094 419.875 10.4878C420.093 10.5245 420.315 10.4636 420.484 10.3215C420.652 10.1794 420.749 9.9704 420.75 9.75V8.25C420.748 7.44176 421.073 6.66702 421.65 6.10125C422.203 5.54686 422.957 5.23983 423.741 5.25C424.927 5.265 426.037 5.98875 426.501 7.05094C426.62 7.32382 426.89 7.50008 427.188 7.5H428.688L426.974 9.22031Z" fill="#BAB59C"/>
</g>
<g clip-path="url(#clip1_11_402)">
<path fill-rule="evenodd" clip-rule="evenodd" d="M460 7.5C457.515 7.5 455.5 9.51472 455.5 12C455.5 14.4853 457.515 16.5 460 16.5C462.485 16.5 464.5 14.4853 464.5 12C464.497 9.51579 462.484 7.50258 460 7.5ZM460 15C458.343 15 457 13.6569 457 12C457 10.3431 458.343 9 460 9C461.657 9 463 10.3431 463 12C463 13.6569 461.657 15 460 15ZM464.5 2.25H455.5C452.602 2.2531 450.253 4.60179 450.25 7.5V16.5C450.253 19.3982 452.602 21.7469 455.5 21.75H464.5C467.398 21.7469 469.747 19.3982 469.75 16.5V7.5C469.747 4.60179 467.398 2.2531 464.5 2.25ZM468.25 16.5C468.25 18.5711 466.571 20.25 464.5 20.25H455.5C453.429 20.25 451.75 18.5711 451.75 16.5V7.5C451.75 5.42893 453.429 3.75 455.5 3.75H464.5C466.571 3.75 468.25 5.42893 468.25 7.5V16.5ZM466 7.125C466 7.74632 465.496 8.25 464.875 8.25C464.254 8.25 463.75 7.74632 463.75 7.125C463.75 6.50368 464.254 6 464.875 6C465.496 6 466 6.50368 466 7.125Z" fill="#BAB59C"/>
</g>
<g clip-path="url(#clip2_11_402)">
<path fill-rule="evenodd" clip-rule="evenodd" d="M500 2.25C494.615 2.25 490.25 6.61522 490.25 12C490.25 17.3848 494.615 21.75 500 21.75C505.385 21.75 509.75 17.3848 509.75 12C509.744 6.61758 505.382 2.25568 500 2.25ZM500.75 20.2153V14.25H503C503.414 14.25 503.75 13.9142 503.75 13.5C503.75 13.0858 503.414 12.75 503 12.75H500.75V10.5C500.75 9.67157 501.422 9 502.25 9H503.75C504.164 9 504.5 8.66421 504.5 8.25C504.5 7.83579 504.164 7.5 503.75 7.5H502.25C500.593 7.5 499.25 8.84315 499.25 10.5V12.75H497C496.586 12.75 496.25 13.0858 496.25 13.5C496.25 13.9142 496.586 14.25 497 14.25H499.25V20.2153C494.858 19.8144 491.558 16.0299 491.759 11.6241C491.959 7.21827 495.59 3.74947 500 3.74947C504.41 3.74947 508.041 7.21827 508.241 11.6241C508.442 16.0299 505.142 19.8144 500.75 20.2153Z" fill="#BAB59C"/>
</g>
<defs>
<clipPath id="clip0_11_402">
<rect width="24" height="24" fill="white" transform="translate(408)"/>
</clipPath>
<clipPath id="clip1_11_402">
<rect width="24" height="24" fill="white" transform="translate(448)"/>
</clipPath>
<clipPath id="clip2_11_402">
<rect width="24" height="24" fill="white" transform="translate(488)"/>
</clipPath>
</defs>
</svg>
